<?xml version="1.0" encoding="UTF-8"?>
<svg id="Layer_1" data-name="Layer 1" xmlns="http://www.w3.org/2000/svg" viewBox="0 0 814.98 292.09">
  <defs>
    <style>
      .cls-1 {
        fill: #fbb040;
        stroke: #fbb040;
      }

      .cls-1, .cls-2, .cls-3, .cls-4, .cls-5 {
        stroke-miterlimit: 10;
      }

      .cls-2 {
        fill: #2e3192;
      }

      .cls-2, .cls-3, .cls-4, .cls-5 {
        stroke: #2e3192;
      }

      .cls-2, .cls-4 {
        font-family: Mallory-BoldItalic, Mallory;
        font-size: 85px;
        stroke-width: 4px;
      }

      .cls-3, .cls-4 {
        fill: #f1f2f2;
      }

      .cls-6 {
        letter-spacing: -.06em;
      }

      .cls-7 {
        fill: #f7941d;
      }

      .cls-5 {
        fill: #2b3990;
      }
    </style>
  </defs>
  <path class="cls-5" d="M233.87,96.57s-12.26-65.87-60.26-60.77-34.91,12.33-69.96,30.13c0,0-16.85,6.36-30.64,.11s-29.62-20.03-29.62-20.03c0,0,13.28,31.15,49.02,36.26,0,0-8.68,7.15-42.38-6.64,0,0,20.94,35.23,61.28,39.32,0,0-25.02,3.57-49.53-7.66,0,0,16.34,24,55.15,24,0,0,14.3-1.53,0,25.02,0,0-27.57,32.68-14.81,57.19,0,0,97.02,19.91,106.72-11.74s-6.13-30.13-6.13-49.02c0,0,33.7-9.19,31.15-56.17Z"/>
  <polygon class="cls-3" points="166.81 86.53 200 96.23 190.98 103.38 166.81 98.44 166.81 86.53"/>
  <path class="cls-1" d="M233.94,98.1s-21.86,4.6-18.96,22.3c0,0,20.19,7.32,19.03,16.34s-2.52,12.6-2.52,12.6c0,0,22.3-9.53,22.3-24.68s-19.85-26.56-19.85-26.56Z"/>
  <path class="cls-7" d="M214.98,120.4s-.83,26.3,18.13,12.18c0,0-4.68-11.5-18.13-12.18Z"/>
  <text class="cls-2" transform="translate(273.11 210.5)"><tspan x="0" y="0">M</tspan><tspan class="cls-6" x="87.29" y="0">A</tspan><tspan x="150.87" y="0">GIS AIR</tspan></text>
  <text class="cls-4" transform="translate(267.75 205.13)"><tspan x="0" y="0">M</tspan><tspan class="cls-6" x="87.29" y="0">A</tspan><tspan x="150.87" y="0">GIS AIR</tspan></text>
</svg>