<?xml version="1.0" encoding="UTF-8"?>
<svg id="Layer_1" data-name="Layer 1" xmlns="http://www.w3.org/2000/svg" viewBox="0 0 814.98 292.09">
  <defs>
    <style>
      .cls-1 {
        fill: #fbb040;
        stroke: #fbb040;
      }

      .cls-1, .cls-2, .cls-3, .cls-4, .cls-5 {
        stroke-miterlimit: 10;
      }

      .cls-2 {
        fill: #2e3192;
      }

      .cls-2, .cls-3, .cls-4, .cls-5 {
        stroke: #2e3192;
      }

      .cls-2, .cls-4 {
        font-family: Mallory-BoldItalic, Mallory;
        font-size: 85px;
        stroke-width: 4px;
      }

      .cls-3, .cls-4 {
        fill: #f1f2f2;
      }

      .cls-6 {
        letter-spacing: -.06em;
      }

      .cls-7 {
        fill: #f7941d;
      }

      .cls-5 {
        fill: #2b3990;
      }
    </style>
  </defs>
  <path class="cls-5" d="M220.58,123.97s-9.53-51.21-46.84-47.24c-37.32,3.97-27.14,9.58-54.39,23.42,0,0-13.1,4.94-23.82,.09-10.72-4.85-23.02-15.57-23.02-15.57,0,0,10.32,24.22,38.11,28.19,0,0-6.75,5.56-32.95-5.16,0,0,16.28,27.39,47.64,30.57,0,0-19.45,2.78-38.51-5.95,0,0,12.7,18.66,42.87,18.66,0,0,11.12-1.19,0,19.45,0,0-21.44,25.41-11.51,44.46,0,0,75.42,15.48,82.97-9.13s-4.76-23.42-4.76-38.11c0,0,26.2-7.15,24.22-43.67Z"/>
  <polygon class="cls-3" points="168.45 116.17 194.25 123.71 187.24 129.27 168.45 125.43 168.45 116.17"/>
  <path class="cls-1" d="M220.64,125.16s-16.99,3.57-14.74,17.34c0,0,15.7,5.69,14.8,12.7-.9,7.01-1.96,9.79-1.96,9.79,0,0,17.33-7.41,17.33-19.19s-15.43-20.64-15.43-20.64Z"/>
  <path class="cls-7" d="M205.89,142.5s-.64,20.45,14.09,9.47c0,0-3.64-8.94-14.09-9.47Z"/>
  <text class="cls-2" transform="translate(273.11 210.5)"><tspan x="0" y="0">M</tspan><tspan class="cls-6" x="87.29" y="0">A</tspan><tspan x="150.87" y="0">GIS AIR</tspan></text>
  <text class="cls-4" transform="translate(267.75 205.13)"><tspan x="0" y="0">M</tspan><tspan class="cls-6" x="87.29" y="0">A</tspan><tspan x="150.87" y="0">GIS AIR</tspan></text>
</svg>